<svg width="66" height="66" viewBox="0 0 66 66" fill="none" xmlns="http://www.w3.org/2000/svg">
<path d="M57.7912 29.0824C61.255 29.1056 62.3764 28.1247 62.8083 27.4879C64.4157 25.3841 61.8982 21.3519 55.9956 18.293C58.285 13.9643 59.877 10.0842 60.68 7.29729C61.1157 5.77233 60.8205 4.84807 60.738 4.68693C60.5163 6.04303 58.6949 10.9337 54.5248 17.584C51.3021 16.1377 47.239 14.993 42.4372 14.516C41.2848 12.3324 37.941 6.28408 34.641 3.0524C32.4702 0.919007 30.7325 0.136546 29.3764 0.0269753H29.37C27.5872 -0.172829 26.4477 0.781077 25.838 1.44494C23.6208 3.83358 22.7017 7.74459 22.6153 12.2821C21.682 10.6901 20.402 9.10713 18.9415 8.93955H18.9183C16.2551 8.49096 13.9696 12.7062 14.2777 19.4183C9.33281 19.5962 5.12531 20.1595 2.28937 20.866C1.0132 21.1818 0.198516 21.8031 0 22.1189C0.128906 22.0699 2.8875 20.9304 14.3808 20.9304C15.0537 27.7624 18.2157 34.0556 17.7323 32.9432C16.4781 34.9283 12.803 40.9818 11.6338 45.5373C10.8771 48.4867 11.0705 50.3855 11.6531 51.614C12.3711 53.2575 13.7685 53.7693 14.6438 53.9678C17.8664 54.7038 21.7826 53.4999 25.8199 51.2427C24.8493 52.8979 24.0281 54.9178 24.652 56.3139C25.5943 58.8469 30.3871 58.7193 36.0525 55.0957C38.6538 59.2439 41.2178 62.5645 43.2326 64.6502C43.5633 65.0068 43.9431 65.3146 44.3605 65.5642C45.0231 65.978 45.4665 65.9986 45.4665 65.9986C44.4043 65.1285 41.0837 61.1002 37.4047 54.1676C40.269 52.1051 43.2893 49.157 46.102 45.2383C61.9343 45.8312 64.573 42.0465 65.1802 41.1597C67.0712 38.597 65.6223 33.7553 57.7912 29.0824V29.0824ZM47.7559 42.7749C50.8252 37.9138 51.6669 34.0389 51.5522 30.8729C55.1435 33.1378 57.634 35.7172 57.8763 38.4565C58.0233 40.1233 56.8322 42.2102 47.7559 42.7749ZM27.9224 49.9743C29.1805 49.1712 30.4399 48.283 31.6864 47.333C32.5475 49.0513 33.4396 50.6974 34.3419 52.2559C29.1083 55.0738 25.468 53.9008 27.9224 49.9743V49.9743ZM55.6372 27.8862C54.3108 27.1978 52.9096 26.5533 51.4632 25.9461C52.4877 24.3903 53.4653 22.804 54.3946 21.1895C59.4296 24.2961 60.3114 28.0447 55.6372 27.8862V27.8862ZM35.9507 51.3033C35.2404 49.8402 34.5327 48.274 33.8237 46.6059C39.3989 46.7697 41.87 44.1915 41.9809 43.975C41.9809 43.984 38.7582 45.9911 33.9204 45.5541C37.8696 42.2554 41.5372 38.6335 44.8852 34.7259C46.0075 33.4102 47.0787 32.0735 48.0988 30.7157C48.0524 30.6783 47.9003 30.329 45.9705 29.1688C39.3061 36.938 32.7783 41.8016 28.8582 44.1116C26.2041 42.6704 23.5937 40.015 21.6769 36.1852C19.0988 31.0392 17.8097 25.5646 17.6073 21.223C19.1929 21.3403 20.8648 21.5028 22.6153 21.7232C19.742 26.4669 20.7604 29.8443 20.8789 30.0028C20.8789 29.9938 20.7565 26.2426 23.4751 22.3239C24.6336 29.0901 26.5657 35.7008 29.2334 42.0259C29.3532 41.9769 29.4705 42.1393 31.64 40.9624C28.2459 31.3628 27.2882 23.1515 27.2572 18.6062C29.8354 17.0052 33.4679 16.0539 37.7798 16.3104C43.5252 16.6546 48.9122 18.2762 52.7742 20.2691C51.8555 21.6149 50.8531 23.0101 49.7668 24.4547C47.0946 19.5924 43.6747 18.7983 43.4685 18.8189C43.4827 18.8189 46.8071 20.6326 48.8207 24.9059C43.987 23.1319 39.0138 21.7647 33.9526 20.8183C32.2685 20.5062 30.5752 20.2461 28.875 20.0384C28.866 20.0964 28.6417 20.2769 28.5966 22.659C38.6345 24.5269 46.2116 27.8011 50.1536 30.0338C50.2489 33.0695 49.2577 36.6866 46.878 40.2908C43.707 45.1003 39.609 48.9572 35.9507 51.3033ZM39.4827 14.3072C33.7386 14.0932 29.9978 15.265 27.2766 16.9717C27.5344 10.2299 30.0236 7.12584 32.2021 7.26764C34.3806 6.72107 39.279 13.9914 39.4827 14.3072ZM22.6411 14.7068C22.703 16.2679 22.8461 17.8805 23.0549 19.5124C21.1793 19.4029 19.3501 19.3513 17.5893 19.35C17.5789 19.7677 17.5738 12.7758 20.7694 12.9576H20.781C21.5235 13.0981 22.1513 13.8444 22.6411 14.7068ZM19.024 35.5896C21.7001 40.7072 24.6056 43.3975 27.4351 44.9108C21.4036 48.1025 17.441 47.489 16.4884 45.4922C16.4626 45.4651 15.0537 43.5199 19.024 35.5909V35.5896Z" fill="black"/>
</svg>
