<svg width="98" height="98" viewBox="0 0 98 98" fill="none" xmlns="http://www.w3.org/2000/svg">
<g clip-path="url(#clip0)">
<path d="M31.1961 63.0898L26.5984 61.1139C27.2858 62.5224 28.3674 63.701 29.7118 64.5066C31.0562 65.3121 32.6056 65.7101 34.1718 65.652C35.738 65.5939 37.2536 65.0823 38.5347 64.1794C39.8157 63.2764 40.807 62.021 41.3883 60.5655C41.9695 59.1099 42.1156 57.517 41.8088 55.98C41.5021 54.443 40.7557 53.0282 39.6603 51.9073C38.5649 50.7864 37.1676 50.0076 35.6381 49.6656C34.1085 49.3236 32.5126 49.433 31.0441 49.9806L35.9078 51.9945C37.3792 52.6092 38.546 53.7832 39.1517 55.2583C39.7574 56.7334 39.7524 58.3886 39.1376 59.86C38.5229 61.3313 37.3489 62.4982 35.8738 63.1039C34.3987 63.7096 32.7434 63.7045 31.2721 63.0898H31.1961Z" fill="black"/>
<path d="M45.5973 4.87729C35.9395 4.85623 26.6361 8.5135 19.578 15.1057C12.52 21.6979 8.237 30.7304 7.59961 40.3671L28.0424 48.7646C28.6009 48.3934 29.2001 48.0874 29.8283 47.8527C31.2062 47.261 32.6999 46.9882 34.198 47.0547L43.4694 33.5275C43.4694 30.6718 44.3163 27.8801 45.9029 25.5056C47.4895 23.1311 49.7445 21.2804 52.3829 20.1875C55.0213 19.0947 57.9246 18.8087 60.7255 19.3659C63.5264 19.923 66.0992 21.2982 68.1186 23.3175C70.1379 25.3369 71.5131 27.9097 72.0702 30.7106C72.6274 33.5115 72.3414 36.4147 71.2486 39.0532C70.1557 41.6916 68.305 43.9466 65.9305 45.5332C63.556 47.1198 60.7643 47.9667 57.9086 47.9667H57.6046L44.2674 57.4661C44.3281 60.0742 43.4181 62.612 41.7138 64.5872C40.0094 66.5624 37.6323 67.8343 35.0433 68.1561C32.4544 68.478 29.8382 67.8268 27.7021 66.3291C25.566 64.8313 24.0623 62.5936 23.4826 60.0499L9.15752 53.9703C11.211 60.6961 15.0905 66.72 20.3645 71.3717C25.6384 76.0234 32.0997 79.1203 39.0293 80.3177C45.9588 81.515 53.0847 80.7659 59.6138 78.1537C66.1429 75.5415 71.819 71.1687 76.0103 65.522C80.2016 59.8753 82.7437 53.1763 83.3537 46.1705C83.9636 39.1648 82.6174 32.1272 79.465 25.8412C76.3126 19.5551 71.4776 14.2672 65.4982 10.566C59.5188 6.86474 52.6295 4.89545 45.5973 4.87729V4.87729Z" fill="black"/>
<path d="M67.598 33.3756C67.6206 31.4695 67.076 29.5998 66.0335 28.0039C64.991 26.4081 63.4977 25.1582 61.7431 24.4131C59.9886 23.668 58.0522 23.4612 56.1799 23.8192C54.3077 24.1772 52.5841 25.0836 51.2282 26.4234C49.8723 27.7633 48.9453 29.4759 48.5651 31.3438C48.1848 33.2116 48.3684 35.1504 49.0925 36.9137C49.8167 38.6769 51.0487 40.1851 52.632 41.2466C54.2153 42.3081 56.0784 42.8749 57.9846 42.875C60.5116 42.8654 62.934 41.865 64.7315 40.0888C66.529 38.3126 67.5582 35.9023 67.598 33.3756V33.3756ZM50.803 33.3756C50.8105 31.9493 51.2403 30.5572 52.0382 29.375C52.836 28.1928 53.9661 27.2733 55.286 26.7327C56.6058 26.1921 58.0562 26.0546 59.4542 26.3374C60.8521 26.6202 62.135 27.3108 63.1409 28.322C64.1467 29.3332 64.8306 30.6196 65.1061 32.019C65.3816 33.4184 65.2364 34.8681 64.6889 36.1851C64.1413 37.5021 63.216 38.6274 62.0296 39.419C60.8432 40.2106 59.4488 40.6331 58.0226 40.6331C57.0681 40.6332 56.123 40.444 55.2421 40.0764C54.3612 39.7088 53.5619 39.1702 52.8905 38.4918C52.2191 37.8133 51.6889 37.0084 51.3306 36.1237C50.9723 35.239 50.793 34.292 50.803 33.3376V33.3756Z" fill="black"/>
</g>
<defs>
<clipPath id="clip0">
<rect width="98" height="98" fill="white"/>
</clipPath>
</defs>
</svg>
