<svg width="88" height="60" viewBox="0 0 88 60" fill="none" xmlns="http://www.w3.org/2000/svg">
<path d="M86.1667 9.859C85.6685 8.08151 84.6978 6.47227 83.3581 5.20233C81.9804 3.89335 80.292 2.957 78.4521 2.48167C71.5661 0.666665 43.9781 0.666666 43.9781 0.666666C32.4769 0.535812 20.9786 1.11134 9.54807 2.39C7.7081 2.90045 6.0228 3.85772 4.64207 5.17667C3.2854 6.482 2.30273 8.09167 1.7894 9.85533C0.556273 16.4984 -0.0428635 23.2436 6.57393e-05 30C-0.0439343 36.7503 0.553732 43.4933 1.7894 50.1447C2.29173 51.901 3.27073 53.5033 4.63107 54.7977C5.9914 56.092 7.6854 57.027 9.54807 57.522C16.5257 59.3333 43.9781 59.3333 43.9781 59.3333C55.4938 59.4644 67.0068 58.8889 78.4521 57.61C80.292 57.1347 81.9804 56.1983 83.3581 54.8893C84.7147 53.595 85.6791 51.9853 86.1631 50.2327C87.4284 43.5922 88.0436 36.8442 88.0001 30.0843C88.0952 23.2959 87.4808 16.5161 86.1667 9.85533V9.859ZM35.2074 42.5547V17.449L58.1607 30.0037L35.2074 42.5547Z" fill="black"/>
</svg>
