<svg width="60" height="60" viewBox="0 0 60 60" fill="none" xmlns="http://www.w3.org/2000/svg">
<path d="M18.7548 46.1741L8.73839 26.9532L22.4095 9.44695L16.7245 26.6827L18.7548 46.1741Z" fill="white"/>
<path d="M21.524 3.68109L31.5603 17.3603L22.7614 31.0396L32.1102 41.8319L25.3047 57.2295L30.8039 57.5733L40.3589 41.282L31.6289 28.0838L39.809 16.7418L30.1853 2.51236L21.524 3.68109Z" fill="white"/>
<path d="M38.3654 27.8776L45.377 18.4601L45.3081 37.7074L38.3654 27.8776Z" fill="white"/>
<path d="M29.7247 57.4208C44.9674 57.4208 57.3242 45.0641 57.3242 29.8213C57.3242 14.5785 44.9674 2.22179 29.7247 2.22179C14.4819 2.22179 2.12517 14.5785 2.12517 29.8213C2.12517 45.0641 14.4819 57.4208 29.7247 57.4208Z" stroke="white" stroke-width="4"/>
</svg>
