<svg width="70" height="55" viewBox="0 0 70 55" fill="none" xmlns="http://www.w3.org/2000/svg">
<path d="M59.2881 5.32031C59.2687 5.28259 59.2365 5.25302 59.1973 5.23692C54.6702 3.15298 49.8928 1.66698 44.9846 0.816084C44.94 0.807767 44.894 0.813767 44.853 0.833231C44.812 0.852696 44.7781 0.884633 44.7563 0.924502C44.1057 2.1091 43.5152 3.32589 42.9869 4.57021C37.6962 3.76444 32.3145 3.76444 27.0238 4.57021C26.492 3.32273 25.892 2.10564 25.2265 0.924502C25.2037 0.8855 25.1697 0.854298 25.1289 0.83496C25.0882 0.815622 25.0426 0.809044 24.9981 0.816084C20.0894 1.66519 15.3116 3.15131 10.7851 5.23704C10.7464 5.25352 10.7137 5.28166 10.6915 5.31757C1.63933 18.8803 -0.840405 32.1096 0.37607 45.175C0.379493 45.207 0.389298 45.238 0.404904 45.2662C0.420511 45.2943 0.441599 45.319 0.466914 45.3388C5.73792 49.2544 11.6336 52.2433 17.9024 54.1777C17.9465 54.191 17.9937 54.1904 18.0375 54.176C18.0813 54.1616 18.1196 54.1341 18.1474 54.0972C19.4938 52.2592 20.6868 50.3129 21.7143 48.2781C21.7284 48.2502 21.7364 48.2196 21.7379 48.1883C21.7394 48.1571 21.7342 48.1258 21.7228 48.0967C21.7114 48.0676 21.6939 48.0412 21.6716 48.0193C21.6493 47.9974 21.6226 47.9806 21.5933 47.9698C19.712 47.2476 17.8907 46.377 16.1464 45.3662C16.1147 45.3475 16.0881 45.3213 16.0689 45.2899C16.0498 45.2584 16.0386 45.2227 16.0364 45.1859C16.0342 45.1491 16.0411 45.1123 16.0565 45.0788C16.0718 45.0453 16.0952 45.0161 16.1245 44.9938C16.4915 44.7187 16.8521 44.4352 17.2062 44.1435C17.2372 44.1178 17.2748 44.1014 17.3146 44.096C17.3545 44.0906 17.3951 44.0965 17.4318 44.113C28.859 49.3453 41.2305 49.3453 52.5224 44.113C52.5592 44.0954 52.6002 44.0887 52.6406 44.0936C52.6811 44.0985 52.7193 44.1149 52.7509 44.1407C53.1053 44.434 53.4669 44.7185 53.8353 44.9938C53.8647 45.0159 53.8883 45.0449 53.9039 45.0782C53.9195 45.1116 53.9266 45.1483 53.9247 45.1852C53.9228 45.222 53.9119 45.2577 53.893 45.2893C53.874 45.3209 53.8476 45.3473 53.8161 45.3662C52.0758 46.3855 50.2528 47.2556 48.3666 47.9671C48.3373 47.9782 48.3107 47.9955 48.2885 48.0177C48.2664 48.0399 48.2491 48.0666 48.2379 48.0959C48.2267 48.1253 48.2218 48.1567 48.2235 48.1881C48.2252 48.2195 48.2335 48.2502 48.2479 48.2781C49.2926 50.3016 50.4838 52.2454 51.812 54.094C51.839 54.1319 51.8772 54.1604 51.9211 54.1753C51.9651 54.1903 52.0126 54.191 52.057 54.1774C58.337 52.2495 64.243 49.2604 69.5206 45.3388C69.5463 45.32 69.5677 45.2959 69.5834 45.2681C69.5991 45.2403 69.6086 45.2095 69.6115 45.1777C71.0678 30.0727 67.1733 16.9519 59.2881 5.32031ZM23.4208 37.2195C19.9804 37.2195 17.1456 34.0519 17.1456 30.1617C17.1456 26.2716 19.9254 23.1037 23.4208 23.1037C26.9435 23.1037 29.7509 26.2991 29.6959 30.1615C29.6959 34.0519 26.916 37.2195 23.4208 37.2195ZM46.6222 37.2195C43.1819 37.2195 40.3471 34.0519 40.3471 30.1617C40.3471 26.2716 43.1269 23.1037 46.6222 23.1037C50.1451 23.1037 52.9524 26.2991 52.8974 30.1615C52.8974 34.0519 50.1451 37.2195 46.6222 37.2195Z" fill="white"/>
</svg>
