<svg width="60" height="60" viewBox="0 0 60 60" fill="none" xmlns="http://www.w3.org/2000/svg">
<path fill-rule="evenodd" clip-rule="evenodd" d="M60 30C60 46.5675 46.5675 60 30 60C13.4325 60 0 46.5675 0 30C0 13.4325 13.4325 0 30 0C46.5675 0 60 13.4325 60 30ZM49.22 27.645C49.705 28.3375 49.98 29.155 50.01 30C50.0231 30.8267 49.8018 31.6401 49.3718 32.3463C48.9417 33.0524 48.3205 33.6223 47.58 33.99C47.615 34.43 47.615 34.87 47.58 35.31C47.58 42.03 39.75 47.49 30.09 47.49C20.43 47.49 12.6 42.03 12.6 35.31C12.5662 34.8706 12.5662 34.4294 12.6 33.99C12.0279 33.7222 11.5206 33.3337 11.113 32.8512C10.7053 32.3687 10.407 31.8037 10.2384 31.195C10.0699 30.5862 10.0352 29.9482 10.1367 29.3247C10.2382 28.7013 10.4734 28.1072 10.8263 27.5833C11.1792 27.0595 11.6414 26.6182 12.181 26.2899C12.7207 25.9617 13.325 25.7541 13.9525 25.6816C14.5799 25.6091 15.2157 25.6733 15.816 25.8698C16.4163 26.0663 16.9669 26.3905 17.43 26.82C20.8868 24.4756 24.9536 23.193 29.13 23.13L31.35 12.72C31.3749 12.5995 31.4235 12.4851 31.493 12.3835C31.5624 12.2819 31.6514 12.1951 31.7546 12.1282C31.8579 12.0612 31.9734 12.0154 32.0945 11.9934C32.2155 11.9714 32.3398 11.9736 32.46 12L39.81 13.47C40.1689 12.8533 40.7359 12.3848 41.4092 12.1484C42.0825 11.9121 42.8179 11.9235 43.4836 12.1806C44.1492 12.4376 44.7014 12.9235 45.0411 13.551C45.3807 14.1785 45.4856 14.9066 45.3369 15.6044C45.1882 16.3023 44.7956 16.9243 44.2296 17.3588C43.6636 17.7933 42.9612 18.0118 42.2486 17.9752C41.536 17.9385 40.8598 17.649 40.3414 17.1588C39.823 16.6685 39.4963 16.0094 39.42 15.3L33 13.95L31.05 23.31C35.1756 23.3985 39.1873 24.6801 42.6 27C43.0556 26.562 43.6006 26.2278 44.1976 26.0204C44.7946 25.813 45.4295 25.7374 46.0585 25.7987C46.6875 25.86 47.2958 26.0567 47.8415 26.3755C48.3873 26.6942 48.8575 27.1273 49.22 27.645ZM20.515 31.3325C20.296 31.6601 20.1437 32.0277 20.0668 32.4142C19.9899 32.8007 19.9898 33.1986 20.0667 33.5851C20.2219 34.3658 20.6808 35.0527 21.3425 35.495C22.0042 35.9372 22.8145 36.0985 23.5951 35.9433C23.9817 35.8665 24.3493 35.7143 24.677 35.4954C25.0047 35.2765 25.286 34.9951 25.505 34.6675C25.9472 34.0058 26.1085 33.1955 25.9533 32.4149C25.7981 31.6343 25.3392 30.9472 24.6775 30.505C24.0158 30.0627 23.2055 29.9015 22.4249 30.0567C21.6442 30.2119 20.9572 30.6708 20.515 31.3325ZM30.03 43.56C32.6925 43.67 35.3125 42.975 37.44 41.37C37.5991 41.2148 37.6901 41.0028 37.6929 40.7806C37.6957 40.5584 37.6102 40.3441 37.455 40.185C37.3782 40.1062 37.2866 40.0433 37.1855 39.9999C37.0843 39.9565 36.9756 39.9335 36.8656 39.9321C36.6434 39.9293 36.4291 40.0149 36.27 40.17C34.4493 41.4761 32.2374 42.1217 30 42C27.7654 42.0998 25.5637 41.433 23.76 40.11C23.6046 39.9824 23.4072 39.9172 23.2064 39.9271C23.0056 39.937 22.8156 40.0212 22.6734 40.1634C22.5312 40.3056 22.447 40.4956 22.4371 40.6964C22.4272 40.8972 22.4924 41.0946 22.62 41.25C24.7484 42.854 27.3672 43.6703 30.03 43.56ZM35.2325 35.615C35.7275 35.945 36.2775 36.24 36.87 36.24C37.2769 36.2448 37.6805 36.1666 38.0562 36.0103C38.4319 35.8541 38.7719 35.6229 39.0554 35.331C39.3388 35.0391 39.5599 34.6925 39.7051 34.3124C39.8504 33.9323 39.9167 33.5266 39.9 33.12C39.8998 32.6018 39.7654 32.0925 39.5098 31.6417C39.2543 31.1909 38.8863 30.8139 38.4418 30.5476C37.9973 30.2813 37.4913 30.1347 36.9733 30.122C36.4552 30.1094 35.9427 30.2311 35.4857 30.4754C35.0287 30.7197 34.6428 31.0782 34.3655 31.516C34.0883 31.9538 33.9291 32.4559 33.9036 32.9735C33.8781 33.4911 33.9871 34.0064 34.22 34.4693C34.4529 34.9323 34.8017 35.327 35.2325 35.615Z" fill="white"/>
</svg>
