<svg width="45" height="42" viewBox="0 0 45 42" fill="none" xmlns="http://www.w3.org/2000/svg">
<path fill-rule="evenodd" clip-rule="evenodd" d="M16.629 26.7978C16.3703 26.5568 16.0196 26.4215 15.6538 26.4215C15.2881 26.4215 14.9373 26.5568 14.6787 26.7978L3.37935 37.3267V30.2115C3.37935 29.8706 3.23403 29.5437 2.97536 29.3026C2.71669 29.0616 2.36585 28.9262 2.00004 28.9262C1.63422 28.9262 1.28339 29.0616 1.02472 29.3026C0.766047 29.5437 0.620728 29.8706 0.620728 30.2115V40.4293C0.620728 40.7702 0.766047 41.0971 1.02472 41.3382C1.28339 41.5792 1.63422 41.7146 2.00004 41.7146H12.9656C13.3314 41.7146 13.6822 41.5792 13.9409 41.3382C14.1995 41.0971 14.3449 40.7702 14.3449 40.4293C14.3449 40.0885 14.1995 39.7615 13.9409 39.5205C13.6822 39.2795 13.3314 39.1441 12.9656 39.1441H5.32969L16.629 28.6152C16.8876 28.3741 17.0328 28.0473 17.0328 27.7065C17.0328 27.3657 16.8876 27.0388 16.629 26.7978ZM28.6125 15.6314C28.8711 15.8724 29.2219 16.0077 29.5876 16.0077C29.9534 16.0077 30.3041 15.8724 30.5628 15.6314L41.8621 5.1025V12.2177C41.8621 12.5586 42.0074 12.8855 42.2661 13.1266C42.5248 13.3676 42.8756 13.503 43.2414 13.503C43.6072 13.503 43.9581 13.3676 44.2167 13.1266C44.4754 12.8855 44.6207 12.5586 44.6207 12.2177V1.99987C44.6207 1.65899 44.4754 1.33208 44.2167 1.09105C43.9581 0.850011 43.6072 0.7146 43.2414 0.7146H32.2759C31.9101 0.7146 31.5592 0.850011 31.3006 1.09105C31.0419 1.33208 30.8966 1.65899 30.8966 1.99987C30.8966 2.34074 31.0419 2.66765 31.3006 2.90869C31.5592 3.14972 31.9101 3.28513 32.2759 3.28513H39.9118L28.6125 13.814C28.3539 14.0551 28.2086 14.3819 28.2086 14.7227C28.2086 15.0635 28.3539 15.3904 28.6125 15.6314Z" fill="white"/>
</svg>
