<svg width="79" height="79" viewBox="0 0 79 79" fill="none" xmlns="http://www.w3.org/2000/svg">
<circle cx="40" cy="40" r="38" fill="#C4C4C4"/>
<path fill-rule="evenodd" clip-rule="evenodd" d="M39.5 0C17.6763 0 0 17.6763 0 39.5C0 56.9788 11.3069 71.7419 27.0081 76.9756C28.9831 77.3213 29.7237 76.1363 29.7237 75.0994C29.7237 74.1613 29.6744 71.0506 29.6744 67.7425C19.75 69.5694 17.1825 65.3231 16.3925 63.1013C15.9481 61.9656 14.0225 58.46 12.3438 57.5219C10.9613 56.7813 8.98625 54.9544 12.2944 54.905C15.405 54.8556 17.6269 57.7687 18.3675 58.9538C21.9225 64.9281 27.6006 63.2494 29.8719 62.2125C30.2175 59.645 31.2544 57.9169 32.39 56.9294C23.6013 55.9419 14.4175 52.535 14.4175 37.4263C14.4175 33.1306 15.9481 29.5756 18.4663 26.8106C18.0713 25.8231 16.6888 21.7744 18.8612 16.3431C18.8612 16.3431 22.1694 15.3063 29.7237 20.3919C32.8838 19.5031 36.2412 19.0588 39.5988 19.0588C42.9562 19.0588 46.3138 19.5031 49.4738 20.3919C57.0281 15.2569 60.3363 16.3431 60.3363 16.3431C62.5088 21.7744 61.1263 25.8231 60.7313 26.8106C63.2494 29.5756 64.78 33.0812 64.78 37.4263C64.78 52.5844 55.5469 55.9419 46.7581 56.9294C48.19 58.1638 49.4244 60.5337 49.4244 64.2369C49.4244 69.52 49.375 73.7663 49.375 75.0994C49.375 76.1363 50.1156 77.3706 52.0906 76.9756C59.932 74.3282 66.7457 69.2885 71.5729 62.5659C76.4001 55.8433 78.9976 47.7762 79 39.5C79 17.6763 61.3238 0 39.5 0Z" fill="black"/>
</svg>
